<?xml version="1.0" encoding="UTF-8"?>
<svg xmlns="http://www.w3.org/2000/svg" width="58.44903564453125" height="67.81381225585938" viewBox="740.9999359295173 222.0 58.44903564453125 67.81381225585938" preserveAspectRatio="none">
  <g>
    <defs>
      <path id="s-Union_1-d1224" d="M769.942501847486 222.0 C769.0422943279548 222.0 767.5527313396735 222.59970092773438 766.8688934490485 223.288330078125 L742.0251434490485 243.87371826171875 C740.6631439373298 245.245361328125 740.6535003826423 247.44400024414062 742.0251434490485 248.8060302734375 C742.7078216717048 249.48388671875 743.617062394361 249.61688232421875 744.508663956861 249.61688232421875 C745.4085052654548 249.61688232421875 746.3081634685798 249.49502563476562 746.992306534986 248.8060302734375 L769.942501847486 229.099365234375 L793.0837371990485 248.62347412109375 C793.7642181560798 249.28662109375 795.3146331951423 249.83987426757812 796.195187394361 249.83987426757812 C797.106076066236 249.83987426757812 798.0161712810798 249.48648071289062 798.7020843670173 248.78262329101562 C800.0512054607673 247.39825439453125 799.4174163982673 244.99981689453125 798.033078019361 243.65072631835938 L773.3569915935798 223.288330078125 C772.6768158123298 222.62551879882812 770.8234222576423 222.0 769.942501847486 222.0 Z M744.2537201092048 261.97393798828125 C743.3428314373298 261.97393798828125 742.432736222486 262.32733154296875 741.7468231365485 263.03118896484375 C740.3977020427985 264.4155578613281 741.0314911052985 266.8139953613281 742.4158294842048 268.1630859375 L767.0919769451423 288.5254821777344 C767.7721527263923 289.18829345703125 769.6255462810798 289.8138122558594 770.506466691236 289.8138122558594 C771.4066742107673 289.8138122558594 772.8962371990485 289.214111328125 773.5800750896735 288.5254821777344 L798.4238250896735 267.9400939941406 C799.7858246013923 266.5684509277344 799.7954681560798 264.36981201171875 798.4238250896735 263.0077819824219 C797.7411468670173 262.3299255371094 796.831906144361 262.1969299316406 795.940304581861 262.1969299316406 C795.0404632732673 262.1969299316406 794.1408050701423 262.31878662109375 793.456662003736 263.0077819824219 L770.506466691236 282.7144470214844 L747.3651703045173 263.1903381347656 C746.684689347486 262.5271911621094 745.1342743084235 261.97393798828125 744.2537201092048 261.97393798828125 Z "></path>
    </defs>
    <g style="mix-blend-mode:normal">
      <use xmlns:xlink="http://www.w3.org/1999/xlink" xlink:href="#s-Union_1-d1224" fill="#097EFE" fill-opacity="1.0"></use>
    </g>
  </g>
</svg>
