<svg width="380px" height="60px" viewBox="0 0 380 60" version="1.1" xmlns="http://www.w3.org/2000/svg" xmlns:xlink="http://www.w3.org/1999/xlink">
    <title>Justinmind-logo</title>
    <g id="Logo-JIM-2020" stroke="none" stroke-width="1" fill="none" fill-rule="evenodd">
        <g id="Artboard" transform="translate(-186.000000, -331.000000)">
            <g id="PRODUCT-Copy" transform="translate(195.000000, 158.000000)"></g>
            <g id="WEB-+-USERNOTE" transform="translate(186.000000, 168.000000)">
                <g id="WEBSITE-+-USERNOTE-Header" transform="translate(0.000000, 112.000000)">
                    <g id="Logos-Web-+-Usernote" transform="translate(0.000000, 51.000000)">
                        <g id="Justinmind--logo-2020" transform="translate(1.000000, 2.000000)">
                            <path d="M5.23055128,40.7311744 C9.5459359,38.9503154 14.488141,41.0047 16.269,45.3200846 C18.049859,49.6356872 15.9952564,54.5776744 11.6798718,56.3585333 C7.36448718,58.1396103 2.42228205,56.0850077 0.641423077,51.7694051 C-1.1394359,47.4540205 0.915166667,42.5118154 5.23055128,40.7311744 Z M45.9053457,0.0366029036 C61.0729176,0.812706679 72.7397154,13.7376117 71.9633985,28.9054589 C71.1870816,44.073306 58.2620108,55.739717 43.0944388,54.9633971 C27.9268669,54.1875094 16.2602853,41.2623883 17.0366021,26.0945411 C17.8127029,10.926694 30.7377737,-0.739716997 45.9053457,0.0366029036 Z" id="Boles" fill="#12CCCB"></path>
                            <path d="M138.954467,13 L139,13.0462818 L139,32.485284 C139,36.7742812 137.76303,40.0988546 135.288874,42.459445 C132.814934,44.819815 129.741265,46 126.068082,46 C122.425688,46 119.336841,44.8275286 116.801975,42.4823655 C114.267325,40.1374228 113,36.8051357 113,32.485284 L113,13.0462818 L116.915806,13.0462818 L116.915806,32.485284 C116.915806,35.570735 117.796321,37.9776071 119.556916,39.7054596 C121.317511,41.4335326 123.4879,42.2974588 126.068082,42.2974588 C128.648481,42.2974588 130.796104,41.4178849 132.511383,39.6591779 C134.226446,37.9002504 135.083977,35.4938191 135.083977,32.4390022 L135.083977,13 L138.954467,13 Z M159.201479,13 C161.886225,13 164.213403,13.4073941 166.182374,14.2221823 C168.151558,15.0371861 169.77745,16.5460531 171.060264,18.7487834 L168.106808,20.6049055 C167.301107,19.2771025 166.093088,18.2734903 164.481899,17.5947157 C162.87071,16.9157255 161.140403,16.5611418 159.290977,16.5307489 C157.053298,16.5307489 155.121405,16.9909533 153.495513,17.9115778 C151.86962,18.8319867 151.056674,20.1824227 151.056674,21.9631013 C151.056674,22.7778895 151.265718,23.4870571 151.683165,24.0906039 C152.100825,24.6941507 152.742232,25.1920768 153.607599,25.5843822 C154.47254,25.9766877 155.345365,26.2860054 156.225435,26.5123355 C157.105505,26.7386655 158.216993,26.9576668 159.55926,27.1686926 C161.110783,27.4101114 162.363765,27.6364414 163.318417,27.8476828 C164.273282,28.0589242 165.369428,28.3984193 166.607706,28.8661681 C167.845771,29.3341324 168.807881,29.8695646 169.494038,30.473327 C170.180194,31.0768738 170.769393,31.8992064 171.261636,32.9403246 C171.753879,33.9814429 172,35.1960809 172,36.5844541 C172,38.2743852 171.619631,39.7530749 170.858892,41.0205232 C170.098153,42.2881871 169.083835,43.2687351 167.815938,43.9630295 C166.547827,44.6571083 165.197889,45.1701231 163.76591,45.5020739 C162.333932,45.8340246 160.827371,46 159.246228,46 C156.262726,46 153.59247,45.4039975 151.235672,44.211777 C148.87866,43.019772 147.13365,41.1714099 146,38.6666906 L149.221952,36.7655181 C150.176604,38.5459813 151.586208,39.9190503 153.450763,40.8847252 C155.315319,41.8504001 157.262128,42.3334531 159.290977,42.3334531 C160.334915,42.3334531 161.341988,42.2429211 162.311344,42.061857 C163.281126,41.8805774 164.220862,41.5790196 165.130765,41.1565368 C166.040668,40.734054 166.771787,40.1227473 167.323695,39.3230478 C167.875603,38.5233482 168.151558,37.5650021 168.151558,36.4486561 C168.151558,35.5129429 167.920353,34.6983703 167.457943,34.0040759 C166.995533,33.3099971 166.301706,32.7517163 165.376886,32.3292335 C164.452067,31.9065352 163.519789,31.5745844 162.580053,31.3331657 C161.640317,31.0919625 160.48408,30.8654169 159.11198,30.6543911 C157.679788,30.4429341 156.479015,30.224364 155.509446,29.9980339 C154.539877,29.7714883 153.488055,29.4395375 152.354405,29.0021817 C151.220968,28.5646102 150.310852,28.0515954 149.624696,27.4629217 C148.938539,26.8744636 148.364043,26.1049414 147.901633,25.1543551 C147.439224,24.2037689 147.208019,23.1098403 147.208019,21.8725693 C147.178399,20.303132 147.528722,18.9225187 148.259841,17.7305137 C148.990747,16.5385088 149.960316,15.6105555 151.168548,14.946654 C152.37678,14.282537 153.659807,13.7921552 155.017203,13.4752931 C156.374599,13.158431 157.769287,13 159.201479,13 Z M104.997771,13 L104.997771,32.4390022 C105.05833,36.5120179 103.884993,39.7903095 101.477544,42.2740976 C99.0703105,44.758106 95.8682362,46 91.8711044,46 C89.2564555,46 86.9668804,45.4466023 85,44.3442148 C85.5119426,43.1455171 85.9734912,41.9197115 86.3803201,40.6681203 C87.875054,41.6911677 89.7043782,42.2048953 91.8711044,42.2048953 C94.6873293,42.2048953 96.9280244,41.3176078 98.5934058,39.5434735 C100.258787,37.7693392 101.091478,35.4012556 101.091478,32.4390022 L101.091478,32.4390022 L101.091478,13 L104.997771,13 Z M199,13 L199,16.5658107 L188.406086,16.5658107 L188.406086,45 L184.593914,45 L184.593914,16.5658107 L174,16.5658107 L174,13 L199,13 Z M211,13 L211,45 L207,45 L207,13 L211,13 Z M223.753596,13 L243.118184,37.5026768 L243.118184,13 L247,13 L247,45 L244.291971,45 L224.882031,20.588531 L224.882031,45 L221,45 L221,13 L223.753596,13 Z M261.767964,13 L273.045953,29.4572361 L284.232254,13 L289,13 L289,45 L285.057441,45 L285.057441,18.7600218 L273.412703,34.9429815 L272.587516,34.9429815 L260.942777,18.6685963 L260.942777,45 L257,45 L257,13 L261.767964,13 Z M303,13 L303,45 L299,45 L299,13 L303,13 Z M314.753596,13 L334.118184,37.5026768 L334.118184,13 L338,13 L338,45 L335.291971,45 L315.882031,20.588531 L315.882031,45 L312,45 L312,13 L314.753596,13 Z M359.762618,13 C362.407456,13 364.790687,13.4412594 366.912751,14.3239955 C369.034595,15.2062969 370.741296,16.3931325 372.033073,17.8845023 C373.324631,19.3756547 374.308675,21.0417892 374.985205,22.8831233 C375.661735,24.7240227 376,26.6490439 376,28.6575349 C376,30.7573209 375.677111,32.7584214 375.031332,34.6604015 C374.385553,36.5623816 373.424573,38.2972048 372.148171,39.8644364 C370.872209,41.4318853 369.165289,42.6793669 367.028068,43.6077506 C364.890629,44.5359169 362.468958,45 359.762618,45 L348,45 L348,13 L359.762618,13 Z M359.762618,16.8346092 L352.013054,16.8346092 L352.013054,41.0284482 L359.762618,41.0284482 C363.760736,41.0284482 366.797433,39.803573 368.873151,37.3538226 C370.948868,34.9038549 371.986946,31.9900214 371.986946,28.6118874 C371.986946,25.3861291 370.926024,22.6166287 368.80396,20.3038209 C366.681896,17.9910131 363.668481,16.8346092 359.762618,16.8346092 Z" id="Justinmind" fill="#2B2B2B"></path>
                        </g>
                    </g>
                </g>
            </g>
        </g>
    </g>
</svg>