<?xml version="1.0" encoding="UTF-8"?>
<svg xmlns="http://www.w3.org/2000/svg" width="39.912353515625" height="20.4500732421875" viewBox="1045.4999992254186 284.50000033924715 39.912353515625 20.4500732421875" preserveAspectRatio="none">
  <g>
    <defs>
      <path id="s-Path_4-d1224" d="M1047.0002433660436 284.50000033924715 C1046.6022941472936 284.50000033924715 1046.2053214910436 284.65734897205965 1045.910277545731 284.9692691380753 C1045.340941608231 285.5711368138565 1045.3674308660436 286.52050815174715 1045.9692375066686 287.0897830540909 L1064.418822467606 304.5398562962784 C1064.7080070379186 304.8133243138565 1065.0788566472936 304.95007358143465 1065.449584186356 304.95007358143465 C1065.820189655106 304.95007358143465 1066.1909171941686 304.813446384169 1066.4799796941686 304.5401919896378 L1084.9426261785436 287.0901187474503 C1085.5446769597936 286.5210879857315 1085.571410358231 285.5717166478409 1085.002318561356 284.9696658665909 C1084.7072746160436 284.6575015599503 1084.3100578191686 284.50000033924715 1083.911986530106 284.50000033924715 C1083.5422355535436 284.50000033924715 1083.171752155106 284.63586459705965 1082.8818351629186 284.909881931044 L1065.4499503972936 301.385712009169 L1048.0307609441686 284.9102176244034 C1047.7407218816686 284.63598666737215 1047.3701164129186 284.50000033924715 1047.0002433660436 284.50000033924715 Z "></path>
    </defs>
    <g style="mix-blend-mode:normal">
      <use xmlns:xlink="http://www.w3.org/1999/xlink" xlink:href="#s-Path_4-d1224" fill="#404040" fill-opacity="1.0"></use>
    </g>
  </g>
</svg>
