<?xml version="1.0" encoding="UTF-8"?>
<svg width="26px" height="26px" viewBox="0 0 26 26" version="1.1" xmlns="http://www.w3.org/2000/svg" xmlns:xlink="http://www.w3.org/1999/xlink">
    <title>radio-android-on</title>
    <g id="Page-1" stroke="none" stroke-width="1" fill="none" fill-rule="evenodd">
        <g id="NOU" transform="translate(-535.000000, -186.000000)">
            <g id="Elements" transform="translate(460.000000, 185.889648)">
                <g id="radio-android-on" transform="translate(75.000000, 0.000000)">
                    <path d="M13,1.08 C16.2916436,1.08 19.2716133,2.41414604 21.4286857,4.57113245 C23.5858119,6.72817256 24.92,9.70809399 24.92,12.9995643 C24.92,16.2910676 23.5857775,19.271254 21.4285957,21.4285219 C19.2715234,23.5856802 16.2915885,24.92 13,24.92 C9.7084115,24.92 6.7284766,23.5856802 4.57140433,21.4285219 C2.41422247,19.271254 1.08,16.2910676 1.08,12.9995643 C1.08,9.70809399 2.41418808,6.72817256 4.57131426,4.57113245 C6.72838674,2.41414604 9.70835638,1.08 13,1.08 Z" stroke="#0075FF" stroke-width="2"></path>
                    <circle fill="#0075FF" cx="13" cy="13" r="7.28"></circle>
                    <path d="M13,1.04 C19.6053256,1.04 24.96,6.39467439 24.96,13 C24.96,19.6053256 19.6053256,24.96 13,24.96 C6.39467439,24.96 1.04,19.6053256 1.04,13 C1.04,6.39467439 6.39467439,1.04 13,1.04 Z M13,2.08 C6.96905053,2.08 2.08,6.96905053 2.08,13 C2.08,19.0309495 6.96905053,23.92 13,23.92 C19.0309495,23.92 23.92,19.0309495 23.92,13 C23.92,6.96905053 19.0309495,2.08 13,2.08 Z" id="Combined-Shape" fill="#0075FF"></path>
                </g>
            </g>
        </g>
    </g>
</svg>